# xmcd
#
# Track frame offsets: 
#        182
#        14910
#        31540
#        46105
#        62572
#        75855
#        93367
#        103832
#        113610
#        132622
#        147507
#        163652
#        175227
#        190010
#        204420
#        225242
#        240412
#        257080
#        276442
#        291512
#
# Disc length: 4157 seconds
#
# Revision: 5
# Processed by: cddbd v1.5.2PL0 Copyright (c) Steve Scherf et al.
# Submitted via: ExactAudioCopy v1.1
#
DISCID=11103b14
DTITLE=Carlene Carter - Hindsight 20-20
DYEAR=1996
DGENRE=Country
TTITLE0=Sweet Meant To Be
TTITLE1=I Fell In Love
TTITLE2=Every Little Thing
TTITLE3=Unbreakable Heart
TTITLE4=Come On Back
TTITLE5=Me And The Wildwood Rose
TTITLE6=Never Together But Close Sometimes
TTITLE7=Cry
TTITLE8=The Sweetest Thing
TTITLE9=Baby Ride Easy
TTITLE10=I Love You 'Cause I Want To
TTITLE11=I'm So Cool
TTITLE12=He Will Be Mine
TTITLE13=Hurricane
TTITLE14=Change
TTITLE15=Trust Yourself
TTITLE16=One Tender Night
TTITLE17=It's No Wonder (Why I Love Him)
TTITLE18=Love Like This
TTITLE19=Easy From Now On
EXTD=
EXTT0=
EXTT1=
EXTT2=
EXTT3=
EXTT4=
EXTT5=
EXTT6=
EXTT7=
EXTT8=
EXTT9=
EXTT10=
EXTT11=
EXTT12=
EXTT13=
EXTT14=
EXTT15=
EXTT16=
EXTT17=
EXTT18=
EXTT19=
PLAYORDER=
